<svg xmlns="http://www.w3.org/2000/svg" viewBox="0 0 800 600">
    <!-- Background -->
    <rect width="800" height="600" fill="#1a1a1a" />

    <!-- Central Node: Rooftops de Lisboa -->
    <circle cx="400" cy="300" r="60" fill="#E53E3E" stroke="#fff" stroke-width="2" />
    <text x="400" y="305" text-anchor="middle" fill="#fff" font-family="Arial" font-size="14" font-weight="bold">Rooftops Lisboa</text>

    <!-- Branch 1: Tipos de Rooftop -->
    <line x1="400" y1="240" x2="400" y2="150" stroke="#fff" stroke-width="2" />
    <rect x="340" y="110" width="120" height="40" rx="10" fill="#2D3748" stroke="#E53E3E" stroke-width="1" />
    <text x="400" y="135" text-anchor="middle" fill="#fff" font-family="Arial" font-size="12">Tipos / Vibe</text>

    <!-- Sub-branches for Tipos -->
    <line x1="340" y1="130" x2="250" y2="100" stroke="#718096" stroke-width="1" />
    <rect x="190" y="80" width="80" height="30" rx="5" fill="#4A5568" />
    <text x="230" y="100" text-anchor="middle" fill="#fff" font-family="Arial" font-size="10">Local Chill</text>

    <line x1="340" y1="130" x2="250" y2="160" stroke="#718096" stroke-width="1" />
    <rect x="190" y="145" width="80" height="30" rx="5" fill="#4A5568" />
    <text x="230" y="165" text-anchor="middle" fill="#fff" font-family="Arial" font-size="10">Instagramável</text>

    <line x1="460" y1="130" x2="550" y2="100" stroke="#718096" stroke-width="1" />
    <rect x="530" y="80" width="80" height="30" rx="5" fill="#4A5568" />
    <text x="570" y="100" text-anchor="middle" fill="#fff" font-family="Arial" font-size="10">Festa</text>

    <line x1="460" y1="130" x2="550" y2="160" stroke="#718096" stroke-width="1" />
    <rect x="530" y="145" width="80" height="30" rx="5" fill="#4A5568" />
    <text x="570" y="165" text-anchor="middle" fill="#fff" font-family="Arial" font-size="10">Vista Brutal</text>

    <!-- Branch 2: Estratégia -->
    <line x1="445" y1="330" x2="580" y2="380" stroke="#fff" stroke-width="2" />
    <rect x="560" y="360" width="120" height="40" rx="10" fill="#2D3748" stroke="#E53E3E" stroke-width="1" />
    <text x="620" y="385" text-anchor="middle" fill="#fff" font-family="Arial" font-size="12">Estratégia</text>

    <!-- Sub-branches for Estratégia -->
    <line x1="620" y1="400" x2="620" y2="450" stroke="#718096" stroke-width="1" />
    <rect x="560" y="450" width="120" height="30" rx="5" fill="#4A5568" />
    <text x="620" y="470" text-anchor="middle" fill="#fff" font-family="Arial" font-size="10">Regra 40 Minutos</text>

    <line x1="680" y1="380" x2="740" y2="380" stroke="#718096" stroke-width="1" />
    <rect x="740" y="365" width="50" height="30" rx="5" fill="#4A5568" />
    <text x="765" y="385" text-anchor="middle" fill="#fff" font-family="Arial" font-size="10">Menu</text>

    <!-- Branch 3: Dicas Práticas -->
    <line x1="355" y1="330" x2="220" y2="380" stroke="#fff" stroke-width="2" />
    <rect x="160" y="360" width="120" height="40" rx="10" fill="#2D3748" stroke="#E53E3E" stroke-width="1" />
    <text x="220" y="385" text-anchor="middle" fill="#fff" font-family="Arial" font-size="12">Dicas Práticas</text>

    <!-- Sub-branches for Dicas -->
    <line x1="220" y1="400" x2="150" y2="450" stroke="#718096" stroke-width="1" />
    <rect x="90" y="450" width="100" height="30" rx="5" fill="#4A5568" />
    <text x="140" y="470" text-anchor="middle" fill="#fff" font-family="Arial" font-size="10">Agasalho Extra</text>

    <line x1="220" y1="400" x2="290" y2="450" stroke="#718096" stroke-width="1" />
    <rect x="250" y="450" width="100" height="30" rx="5" fill="#4A5568" />
    <text x="300" y="470" text-anchor="middle" fill="#fff" font-family="Arial" font-size="10">Solo Rooftoping</text>

</svg>